<?xml version="1.0" encoding="UTF-8" standalone="no"?><!-- Generator: Gravit.io --><svg xmlns="http://www.w3.org/2000/svg" xmlns:xlink="http://www.w3.org/1999/xlink" style="isolation:isolate" viewBox="0 0 471.096 471.096" width="471.096pt" height="471.096pt"><defs><clipPath id="_clipPath_QvD2T5R6BiAUNpmxhvwwjMdb6W1rzUbc"><rect width="471.096" height="471.096"/></clipPath></defs><g clip-path="url(#_clipPath_QvD2T5R6BiAUNpmxhvwwjMdb6W1rzUbc)"><path d=" M 107.563 463.037 C 86.855 437.15 75.57 404.988 75.563 371.837 L 75.563 295.917 C 75.577 280.009 81.908 264.758 93.163 253.517 L 109.163 237.517 C 132.594 214.089 170.58 214.089 194.011 237.517 C 205.266 248.758 211.597 264.009 211.611 279.917 L 211.611 351.037 C 211.611 371.809 204.874 392.02 192.411 408.637 L 187.563 415.037 L 187.563 463.037 L 107.563 463.037 Z " fill="rgb(187,222,251)"/><path d=" M 122.647 334.985 L 122.647 422.985 C 104.718 405.057 94.646 380.74 94.647 355.385 L 94.647 334.985 L 122.647 334.985 Z " fill="rgb(33,150,243)"/><path d=" M 251.563 334.985 L 415.659 256.937 C 426.264 251.64 430.567 238.749 425.27 228.144 C 425.153 227.91 425.032 227.678 424.907 227.449 L 387.563 158.985 L 235.563 302.985 L 235.563 334.985 L 251.563 334.985 L 251.563 334.985 Z " fill="rgb(187,222,251)"/><path d=" M 251.563 302.985 L 396.203 158.345 C 404.683 149.861 404.683 136.109 396.203 127.625 L 282.923 14.345 C 274.439 5.865 260.687 5.865 252.203 14.345 L 219.563 46.985 L 219.563 302.985 L 251.563 302.985 L 251.563 302.985 Z " fill="rgb(187,222,251)"/><path d=" M 282.923 14.345 C 274.439 5.865 260.687 5.865 252.203 14.345 L 219.563 46.985 L 219.563 302.985 L 251.563 302.985 L 283.563 270.985 L 282.923 14.345 L 282.923 14.345 Z " fill="rgb(33,150,243)"/><path d=" M 123.563 350.985 L 63.643 350.985 C 52.553 350.985 43.563 341.995 43.563 330.905 L 43.563 67.065 C 43.563 55.975 52.553 46.985 63.643 46.985 L 63.643 46.985 L 231.483 46.985 C 242.573 46.985 251.563 55.975 251.563 67.065 L 251.563 330.905 C 251.563 341.995 242.573 350.985 231.483 350.985 L 171.563 350.985" fill="rgb(187,222,251)"/><g><path d=" M 142.875 118.985 L 94.875 182.985 L 142.875 246.985 L 190.875 182.985 L 142.875 118.985 L 142.875 118.985 Z " fill="rgb(41,98,255)"/><path d=" M 69.906 84.638 L 81.22 73.324 L 92.534 84.638 L 81.219 95.952 L 69.906 84.638 L 69.906 84.638 Z " fill="rgb(227,71,44)"/><path d=" M 202.63 313.329 L 213.944 302.015 L 225.258 313.329 L 213.944 324.643 L 202.63 313.329 L 202.63 313.329 Z " fill="rgb(227,71,44)"/><path d=" M 251.563 166.393 L 252.155 106.473 C 252.266 95.146 260.074 85.349 271.091 82.713 C 284.345 79.533 297.668 87.699 300.848 100.953 C 301.047 101.782 301.203 102.62 301.315 103.465 L 302.971 115.985 L 315.459 117.897 C 328.929 119.951 338.184 132.536 336.13 146.006 C 336.001 146.853 335.828 147.692 335.611 148.521 C 332.756 159.482 322.809 167.094 311.483 166.985 L 251.563 166.393 L 251.563 166.393 Z " fill="rgb(41,98,255)"/></g><path d=" M 283.563 83.089 C 279.509 81.881 275.21 81.752 271.091 82.713 C 260.074 85.349 252.266 95.146 252.155 106.473 L 251.563 166.393 L 283.563 166.705 L 283.563 83.089 L 283.563 83.089 Z " fill="rgb(21,101,192)"/><path d=" M 163.563 320.929 L 163.563 350.985 L 179.563 350.985 L 179.563 320.929 C 179.584 307.718 168.892 296.992 155.681 296.971 C 152.914 296.967 150.167 297.442 147.563 298.377 C 157.177 301.691 163.611 310.761 163.563 320.929 Z " fill="rgb(187,222,251)"/><path d=" M 122.647 320.981 C 122.646 314.614 125.176 308.507 129.679 304.005 C 139.051 294.636 154.243 294.636 163.615 304.005 C 168.118 308.507 170.648 314.614 170.647 320.981 L 170.647 391.037 L 174.359 394.749 C 192.47 412.86 202.645 437.424 202.647 463.037 L 122.647 463.037 L 122.647 320.981 L 122.647 320.981 Z " fill="rgb(187,222,251)"/><path d=" M 174.359 394.749 L 170.647 391.037 L 170.647 320.981 C 170.668 307.77 159.976 297.044 146.765 297.023 C 143.998 297.019 141.251 297.494 138.647 298.429 C 148.26 301.743 154.695 310.812 154.647 320.981 L 154.647 391.037 L 158.359 394.749 C 176.47 412.86 186.645 437.424 186.647 463.037 L 202.647 463.037 C 202.645 437.424 192.47 412.86 174.359 394.749 Z " fill="rgb(33,150,243)"/><path d=" M 63.681 359.037 L 67.577 359.037 L 67.577 371.837 C 67.62 406.806 79.519 440.727 101.329 468.061 C 104.042 471.548 109.069 472.175 112.556 469.462 C 116.043 466.749 116.67 461.722 113.957 458.235 C 113.911 458.176 113.865 458.118 113.818 458.061 C 94.275 433.568 83.614 403.172 83.578 371.837 L 83.578 359.037 L 115.578 359.037 L 115.578 415.037 C 115.578 419.455 119.16 423.037 123.578 423.037 C 127.996 423.037 131.578 419.455 131.578 415.037 L 131.578 320.981 C 131.578 312.144 138.741 304.981 147.578 304.981 C 156.415 304.981 163.578 312.144 163.578 320.981 L 163.578 391.037 C 163.578 393.159 164.422 395.193 165.922 396.693 L 169.634 400.405 C 186.299 416.98 195.641 439.533 195.578 463.037 C 195.578 467.455 199.16 471.037 203.578 471.037 C 207.996 471.037 211.578 467.455 211.578 463.037 C 211.606 445.626 207.263 428.486 198.946 413.189 C 210.668 397.403 217.712 378.637 219.274 359.037 L 231.514 359.037 C 243.116 359.009 253.505 351.846 257.658 341.013 L 419.258 264.141 C 433.814 256.857 439.71 239.153 432.426 224.596 C 432.271 224.287 432.111 223.98 431.946 223.677 L 400.29 165.637 L 401.89 164.037 C 413.484 152.425 413.484 133.617 401.89 122.005 L 288.617 8.741 C 277.001 -2.844 258.201 -2.844 246.585 8.741 L 216.289 39.037 L 63.681 39.037 C 48.171 39.041 35.595 51.607 35.577 67.117 L 35.577 330.957 C 35.595 346.467 48.171 359.033 63.681 359.037 L 63.681 359.037 Z  M 189.457 398.813 C 186.826 395.405 183.992 392.159 180.969 389.093 L 179.577 387.725 L 179.577 359.037 L 203.169 359.037 C 201.851 373.203 197.148 386.844 189.457 398.813 L 189.457 398.813 Z  M 417.921 231.341 C 421.474 237.873 419.059 246.049 412.527 249.602 C 412.44 249.649 412.353 249.696 412.265 249.741 L 259.577 322.373 L 259.577 306.373 L 388.521 177.437 L 417.921 231.341 Z  M 257.921 20.053 C 263.283 14.701 271.967 14.701 277.329 20.053 L 390.609 133.333 C 395.953 138.699 395.953 147.375 390.609 152.741 L 259.577 283.725 L 259.577 174.525 L 311.417 175.037 L 311.737 175.037 C 329.79 175.037 344.425 160.402 344.425 142.349 C 344.425 126.205 332.639 112.478 316.681 110.037 L 310.129 109.037 L 309.257 102.469 C 306.932 84.602 290.564 72.002 272.696 74.327 C 268.035 74.934 263.559 76.54 259.577 79.037 L 259.577 67.117 C 259.528 54.17 250.632 42.934 238.041 39.917 L 257.921 20.053 Z  M 259.697 158.525 L 260.209 106.605 C 260.282 98.947 265.56 92.322 273.009 90.541 C 281.983 88.401 290.992 93.94 293.133 102.913 C 293.264 103.461 293.366 104.014 293.441 104.573 L 295.105 117.085 C 295.572 120.61 298.31 123.403 301.825 123.941 L 314.313 125.861 C 323.414 127.258 329.659 135.769 328.262 144.87 C 328.175 145.438 328.058 146.001 327.913 146.557 C 325.885 153.911 319.206 159.014 311.577 159.037 L 259.697 158.525 Z  M 51.577 67.117 C 51.586 60.44 57.004 55.033 63.681 55.037 L 231.513 55.037 C 238.173 55.059 243.564 60.457 243.577 67.117 L 243.577 330.957 C 243.564 337.617 238.173 343.015 231.513 343.037 L 179.577 343.037 L 179.577 320.981 C 179.577 303.308 165.25 288.981 147.577 288.981 C 129.904 288.981 115.577 303.308 115.577 320.981 L 115.577 343.037 L 63.657 343.037 C 56.989 343.028 51.586 337.625 51.577 330.957 L 51.577 67.117 L 51.577 67.117 Z " fill="rgb(13,71,161)"/><path d=" M 89.187 189.736 L 137.187 253.736 C 139.838 257.271 144.852 257.987 148.387 255.336 C 148.993 254.881 149.532 254.342 149.987 253.736 L 197.987 189.736 C 200.12 186.892 200.12 182.98 197.987 180.136 L 149.987 116.136 C 147.079 112.601 141.856 112.094 138.321 115.002 C 137.907 115.342 137.527 115.722 137.187 116.136 L 89.187 180.136 C 87.054 182.98 87.054 186.892 89.187 189.736 L 89.187 189.736 Z  M 143.587 134.272 L 181.587 184.936 L 143.587 235.6 L 105.587 184.936 L 143.587 134.272 Z " fill="rgb(13,71,161)"/><path d=" M 69.931 84.637 L 81.245 73.323 L 92.559 84.637 L 81.244 95.951 L 69.931 84.637 L 69.931 84.637 Z " fill="rgb(13,71,161)"/><path d=" M 202.647 313.328 L 213.961 302.014 L 225.275 313.328 L 213.961 324.642 L 202.647 313.328 L 202.647 313.328 Z " fill="rgb(13,71,161)"/></g></svg>