<?xml version="1.0" encoding="UTF-8" standalone="no"?><!-- Generator: Gravit.io --><svg xmlns="http://www.w3.org/2000/svg" xmlns:xlink="http://www.w3.org/1999/xlink" style="isolation:isolate" viewBox="0 0 512 512" width="512pt" height="512pt"><defs><clipPath id="_clipPath_ro2lIE50TQStD0T2z7gT9rPSH2BMkoog"><rect width="512" height="512"/></clipPath></defs><g clip-path="url(#_clipPath_ro2lIE50TQStD0T2z7gT9rPSH2BMkoog)"><g><path d=" M 309.264 245.056 L 266.817 202.619 C 226.409 158.202 146.223 166.26 131.927 225.302 C 128.538 239.258 115.462 247.895 101.107 247.596 C 25.429 246.026 -40.681 340.458 65.357 446.496 C 171.385 552.524 265.837 486.854 264.248 410.746 C 263.948 396.391 272.595 383.305 286.551 379.926 C 346.173 365.479 353.651 285.484 309.264 245.056 L 309.264 245.056 Z " fill="rgb(33,150,243)"/><path d=" M 491.359 63.011 C 497.217 68.869 497.217 78.366 491.359 84.225 C 484.075 91.508 435.756 139.828 427.738 147.846 C 421.89 153.694 412.393 153.694 406.535 147.846 L 364.117 105.428 C 358.269 99.57 358.269 90.073 364.117 84.225 C 372.17 76.172 420.519 27.824 427.738 20.604 C 433.597 14.746 443.094 14.746 448.952 20.604 L 491.359 63.011 Z " fill="rgb(33,150,243)"/><path d=" M 406.535 147.846 L 364.117 105.428 C 364.006 105.54 184.804 284.631 184.492 284.944 C 172.155 284.255 159.599 288.623 150.182 298.05 C 132.617 315.615 132.617 344.097 150.182 361.671 C 167.747 379.236 196.238 379.236 213.803 361.671 C 223.22 352.244 227.589 339.688 226.909 327.352 C 231.502 322.761 398.032 156.342 406.535 147.846 Z " fill="rgb(187,222,251)"/></g><g><path d=" M 90.1 365.197 C 86.195 369.101 86.195 375.43 90.099 379.336 L 132.506 421.753 C 136.409 425.657 142.738 425.658 146.644 421.755 C 150.549 417.851 150.549 411.522 146.645 407.616 L 104.238 365.199 C 100.334 361.294 94.005 361.294 90.1 365.197 Z " fill="rgb(13,71,161)"/><path d=" M 494.862 94.821 L 498.391 91.293 C 508.16 81.521 508.162 65.712 498.391 55.941 L 455.984 13.535 C 446.213 3.763 430.404 3.764 420.632 13.534 L 417.103 17.063 L 402.957 2.925 C 399.052 -0.977 392.724 -0.975 388.819 2.929 C 384.916 6.834 384.918 13.164 388.823 17.068 L 402.964 31.203 L 374.687 59.48 L 360.551 45.344 C 356.646 41.442 350.318 41.442 346.412 45.344 C 342.509 49.248 342.509 55.578 346.412 59.483 L 360.548 73.619 L 357.011 77.156 C 349.784 84.38 347.925 94.971 351.425 103.942 L 266.735 188.588 C 242.95 167.661 209.368 159.278 178.43 167.19 C 149.465 174.594 128.961 194.918 122.175 222.943 C 120.028 231.785 111.434 237.84 101.276 237.601 C 61.006 236.782 23.773 260.227 8.012 297.187 C -12.152 344.475 6.159 401.472 58.25 453.565 C 100.77 496.085 159.478 527.488 214.727 503.926 C 251.684 488.163 275.048 450.888 274.205 410.538 C 273.992 400.376 280.021 391.783 288.867 389.642 C 303.11 386.191 315.285 379.375 325.053 369.385 C 328.912 365.437 328.842 359.108 324.894 355.247 C 320.947 351.387 314.616 351.46 310.756 355.406 C 303.65 362.675 294.701 367.655 284.16 370.21 C 266.12 374.577 253.806 391.332 254.215 410.955 C 254.889 443.203 235.868 473.173 206.883 485.535 C 167.507 502.33 118.485 485.524 72.389 439.427 C 26.368 393.407 9.607 344.42 26.404 305.029 C 38.787 275.987 68.704 256.874 100.86 257.591 C 120.446 258.014 137.225 245.693 141.606 227.656 C 148.436 199.447 170.712 189.801 183.383 186.561 C 207.136 180.489 233.801 186.984 252.539 202.777 L 180.343 274.92 C 166.391 275.329 153.01 281.036 143.075 290.981 C 121.643 312.414 121.642 347.296 143.075 368.741 C 164.512 390.178 199.395 390.179 220.837 368.737 C 230.77 358.792 236.474 345.417 236.892 331.469 L 309.102 259.313 C 314.521 265.708 318.944 273.071 322.079 281.006 C 324.104 286.132 329.9 288.662 335.051 286.631 C 340.185 284.602 342.704 278.794 340.675 273.659 C 336.537 263.186 330.601 253.486 323.282 245.142 L 407.978 160.499 C 417.062 164.045 427.618 162.066 434.769 154.913 L 438.307 151.375 L 452.443 165.511 C 456.348 169.415 462.676 169.414 466.581 165.511 C 470.485 161.607 470.485 155.277 466.581 151.372 L 452.446 137.237 L 480.723 108.959 L 494.858 123.101 C 498.759 127.004 505.09 127.01 508.997 123.105 C 512.901 119.202 512.903 112.872 509.001 108.966 L 494.862 94.821 Z  M 206.697 354.6 C 193.054 368.242 170.854 368.242 157.215 354.602 C 143.576 340.955 143.575 318.756 157.216 305.113 C 170.744 291.571 192.92 291.34 206.701 305.121 C 220.498 318.905 220.202 341.078 206.697 354.6 L 206.697 354.6 Z  M 232.314 307.779 C 229.591 301.567 225.723 295.862 220.834 290.978 C 215.949 286.094 210.244 282.227 204.038 279.505 C 204.147 279.396 363.615 120.025 364.079 119.562 L 392.358 147.841 C 385.991 154.203 234.157 305.937 232.314 307.779 L 232.314 307.779 Z  M 484.252 77.154 C 474.937 86.469 428.791 132.616 420.631 140.776 C 418.685 142.722 415.513 142.718 413.56 140.769 L 371.155 98.363 C 369.206 96.411 369.203 93.239 371.149 91.292 C 379.312 83.129 425.509 36.933 434.77 27.672 C 436.722 25.718 439.889 25.715 441.845 27.672 L 484.253 70.079 C 486.205 72.031 486.209 75.198 484.252 77.154 L 484.252 77.154 Z " fill="rgb(13,71,161)"/><circle vector-effect="non-scaling-stroke" cx="337.53447595840316" cy="321.90317755987456" r="9.996993091921581" fill="rgb(13,71,161)"/></g></g></svg>