<?xml version="1.0" encoding="UTF-8" standalone="no"?><!-- Generator: Gravit.io --><svg xmlns="http://www.w3.org/2000/svg" xmlns:xlink="http://www.w3.org/1999/xlink" style="isolation:isolate" viewBox="0 0 512 512" width="512pt" height="512pt"><defs><clipPath id="_clipPath_SLLDM3fPU4mOdDTkQ4Txm3YRLjpno3bC"><rect width="512" height="512"/></clipPath></defs><g clip-path="url(#_clipPath_SLLDM3fPU4mOdDTkQ4Txm3YRLjpno3bC)"><g><g><path d=" M 504.016 167.995 C 504.016 132.647 475.36 103.991 440.012 103.991 C 432.211 103.991 424.769 105.456 417.856 108.011 C 379.809 66.22 324.969 39.987 264 39.987 C 200.428 39.987 143.554 68.537 105.398 113.478 C 95.664 107.499 84.249 103.991 71.988 103.991 C 36.64 103.991 7.984 132.646 7.984 167.995 C 7.984 198.102 28.8 223.284 56.804 230.112 C 56.301 236.013 55.987 241.968 55.987 248.001 C 55.987 361.125 146.305 453.091 258.758 455.882 C 273.998 466.061 292.3 472.015 312.003 472.015 C 356.238 472.015 393.386 442.057 404.517 401.352 C 445.995 363.325 472.013 308.707 472.013 248.001 C 472.013 239.951 471.509 232.025 470.62 224.214 C 490.515 213.357 504.016 192.255 504.016 167.995 L 504.016 167.995 Z " fill="rgb(33,150,243)"/></g><g><g><path d=" M 292.245 446.182 C 198.427 433.824 123.758 357.409 113.293 263.361 C 109.602 230.189 113.907 198.496 124.321 169.715 C 131.794 149.064 124.473 125.412 105.856 113.763 C 105.703 113.666 105.548 113.571 105.393 113.475 C 100.585 110.523 95.362 108.185 89.834 106.562 C 89.603 106.495 89.365 106.447 89.134 106.382 C 86.836 105.736 84.476 105.247 82.082 104.861 C 81.45 104.761 80.821 104.654 80.184 104.572 C 77.498 104.222 74.772 103.989 71.987 103.989 C 36.64 103.991 7.984 132.646 7.984 167.995 C 7.984 198.102 28.8 223.284 56.804 230.112 C 56.301 236.013 55.987 241.968 55.987 248.001 C 55.987 361.125 146.305 453.091 258.758 455.882 C 273.998 466.061 292.3 472.015 312.003 472.015 C 341.656 472.015 368.077 458.512 385.658 437.376 C 356.807 446.969 325.198 450.522 292.245 446.182 L 292.245 446.182 Z " fill="rgb(41,98,255)"/></g></g><g><path d=" M 380.008 175.995 C 364.613 175.995 350.577 182.957 339.957 194.396 C 331.648 203.347 319.688 207.997 307.475 207.997 L 304.614 207.997 C 292.591 207.997 281.384 202.905 272.504 194.8 C 259.589 183.012 242.37 175.863 223.475 175.997 C 185.323 176.269 153.08 207.816 152.023 245.954 C 150.894 286.655 183.552 320.004 224 320.004 C 226.482 320.004 314.952 319.633 362.875 319.431 C 382.6 319.348 401.856 313.724 418.539 303.202 C 431.666 289.993 440.013 270.166 440.013 248 C 440.012 208.232 413.147 175.995 380.008 175.995 L 380.008 175.995 Z " fill="rgb(187,222,251)"/></g><g><circle vector-effect="non-scaling-stroke" cx="312.0036179337232" cy="376.00761013645223" r="96.0064873294347" fill="rgb(187,222,251)"/></g><g><path d=" M 336.005 456.012 C 282.982 456.012 239.998 413.028 239.998 360.006 C 239.998 331.861 252.184 306.625 271.479 289.064 C 238.737 304.355 215.997 337.485 215.997 376.007 C 215.997 429.029 258.98 472.013 312.004 472.013 C 336.882 472.013 359.475 462.47 376.531 446.947 C 364.205 452.704 350.506 456.012 336.005 456.012 Z " fill="rgb(33,150,243)"/></g><g><circle vector-effect="non-scaling-stroke" cx="223.99750487329433" cy="247.99962573099415" r="24.001122807017538" fill="rgb(41,98,255)"/></g><g><circle vector-effect="non-scaling-stroke" cx="384.00798440545805" cy="247.99962573099415" r="24.001122807017566" fill="rgb(41,98,255)"/></g><g><circle vector-effect="non-scaling-stroke" cx="238.6658557504873" cy="233.9989707602339" r="12.000561403508783" fill="rgb(255,255,255)"/></g><g><circle vector-effect="non-scaling-stroke" cx="397.93877582846005" cy="233.9989707602339" r="12.000561403508755" fill="rgb(255,255,255)"/></g><g><circle vector-effect="non-scaling-stroke" cx="71.98839766081872" cy="167.9948849902534" r="32.00249512670564" fill="rgb(33,150,243)"/></g></g><g><path d=" M 512 167.995 C 512 128.301 479.706 96.007 440.012 96.007 C 433.255 96.007 426.6 96.948 420.171 98.79 C 419.039 97.606 417.896 96.429 416.734 95.267 C 375.938 54.471 321.696 32.003 264 32.003 C 202.746 32.003 144.564 57.956 103.598 103.359 C 93.866 98.597 83.067 96.007 71.988 96.007 C 32.294 96.006 0 128.3 0 167.995 C 0 199.407 20.231 226.168 48.342 235.975 C 48.122 239.976 48.003 244.001 48.003 248 C 48.003 304.672 69.79 358.225 109.349 398.791 C 148.434 438.869 200.602 461.924 256.41 463.853 C 272.501 474.072 291.573 479.999 312.004 479.999 C 359.07 479.999 398.926 448.566 411.701 405.592 C 432.89 385.73 449.61 362.27 461.391 335.833 C 473.738 308.125 479.999 278.573 479.999 248 C 479.999 241.43 479.692 234.909 479.116 228.443 C 499.746 215.1 512 192.661 512 167.995 L 512 167.995 Z  M 312.004 464.03 C 286.453 464.03 263.413 453.083 247.318 435.637 C 266.36 441.807 287.135 445 308.69 445 C 310.414 445 312.144 444.979 313.877 444.938 C 336.99 444.394 359.174 440.213 379.244 432.742 C 363.085 451.863 338.94 464.03 312.004 464.03 L 312.004 464.03 Z  M 393.74 408.667 C 370.694 421.255 342.968 428.279 313.502 428.974 C 283.705 429.673 255.487 423.851 231.746 412.145 C 226.76 401.114 223.983 388.879 223.983 376.007 C 223.983 327.472 263.468 287.986 312.004 287.986 C 360.539 287.986 400.026 327.472 400.026 376.007 C 400.026 387.543 397.791 398.564 393.74 408.667 L 393.74 408.667 Z  M 446.804 329.333 C 438.885 347.107 428.544 363.422 415.969 378.074 C 415.983 377.386 415.995 376.699 415.995 376.008 C 415.995 318.667 369.345 272.018 312.004 272.018 C 278.919 272.018 249.396 287.55 230.336 311.703 C 228.236 311.91 226.114 312.021 223.999 312.021 C 206.562 312.021 190.262 305.137 178.102 292.634 C 165.947 280.137 159.519 263.639 160.003 246.177 C 160.23 237.996 162.067 230.026 165.357 222.624 C 168.646 215.223 173.388 208.39 179.423 202.483 C 191.491 190.67 207.155 184.1 223.53 183.983 C 223.685 183.982 223.839 183.981 223.994 183.981 C 239.999 183.981 255.299 189.908 267.12 200.699 C 277.919 210.555 291.234 215.984 304.614 215.984 L 307.474 215.984 C 322.306 215.984 336.278 210.096 345.809 199.831 C 355.296 189.61 367.441 183.982 380.008 183.982 C 408.692 183.982 432.027 212.701 432.027 248.002 C 432.027 267.26 425.046 285.328 412.874 297.575 C 409.766 300.703 409.781 305.758 412.909 308.867 C 416.037 311.975 421.093 311.959 424.2 308.832 C 439.323 293.616 447.996 271.444 447.996 248.002 C 447.996 203.896 417.497 168.013 380.008 168.013 C 362.951 168.013 346.649 175.455 334.105 188.967 C 327.587 195.989 317.881 200.016 307.474 200.016 L 304.614 200.016 C 295.227 200.016 285.735 196.07 277.885 188.906 C 263.111 175.42 243.994 168.014 223.995 168.014 C 223.803 168.014 223.608 168.015 223.416 168.016 C 180.827 168.32 145.218 203.186 144.04 245.737 C 143.436 267.546 151.466 288.156 166.654 303.77 C 180.876 318.392 199.631 326.862 219.842 327.885 C 212.292 342.284 208.013 358.656 208.013 376.011 C 208.013 402.922 218.288 427.477 235.12 445.96 C 191.775 439.715 151.823 419.477 120.781 387.644 C 84.147 350.078 63.971 300.486 63.971 248.002 C 63.971 245.192 64.033 242.368 64.15 239.551 C 66.726 239.831 69.339 239.985 71.988 239.985 C 76.867 239.985 81.744 239.493 86.488 238.523 C 90.809 237.638 93.594 233.42 92.71 229.1 C 91.826 224.78 87.609 221.996 83.287 222.878 C 79.596 223.634 75.794 224.017 71.988 224.017 C 41.099 224.017 15.969 198.887 15.969 167.997 C 15.969 137.108 41.099 111.978 71.988 111.978 C 89.873 111.978 106.834 120.633 117.358 135.13 C 119.949 138.699 124.942 139.49 128.51 136.9 C 132.078 134.309 132.871 129.317 130.281 125.748 C 126.533 120.585 122.146 116.001 117.277 112.069 C 155.109 71.254 208.177 47.974 264 47.974 C 374.297 47.974 464.029 137.707 464.029 248.002 C 464.03 276.319 458.234 303.683 446.804 329.333 L 446.804 329.333 Z  M 476.738 210.317 C 470.469 174.481 455.264 140.998 432.242 112.52 C 434.804 112.164 437.397 111.975 440.012 111.975 C 470.901 111.975 496.031 137.106 496.031 167.994 C 496.031 184.524 488.957 199.768 476.738 210.317 Z " fill="rgb(13,71,161)"/><path d=" M 71.988 128.008 C 49.939 128.008 32.002 145.946 32.002 167.994 C 32.002 190.042 49.94 207.98 71.988 207.98 C 94.036 207.98 111.974 190.042 111.974 167.994 C 111.974 145.946 94.037 128.008 71.988 128.008 L 71.988 128.008 Z  M 71.988 192.012 C 58.745 192.012 47.971 181.239 47.971 167.995 C 47.971 154.752 58.745 143.978 71.988 143.978 C 85.232 143.978 96.005 154.752 96.005 167.995 C 96.005 181.239 85.232 192.012 71.988 192.012 L 71.988 192.012 Z " fill="rgb(13,71,161)"/><path d=" M 248 240.016 C 243.59 240.016 240.015 243.591 240.015 248 C 240.015 256.832 232.83 264.017 223.999 264.017 C 215.167 264.017 207.982 256.832 207.982 248 C 207.982 239.168 215.167 231.983 223.999 231.983 C 228.408 231.983 231.983 228.408 231.983 223.999 C 231.983 219.59 228.408 216.015 223.999 216.015 C 206.362 216.015 192.013 230.364 192.013 248 C 192.013 265.637 206.362 279.986 223.999 279.986 C 241.635 279.986 255.984 265.637 255.984 248 C 255.984 243.59 252.409 240.016 248 240.016 L 248 240.016 Z " fill="rgb(13,71,161)"/><path d=" M 408.01 240.016 C 403.601 240.016 400.026 243.591 400.026 248 C 400.026 256.832 392.841 264.017 384.009 264.017 C 375.177 264.017 367.991 256.832 367.991 248 C 367.991 239.168 375.177 231.983 384.009 231.983 C 388.418 231.983 391.993 228.408 391.993 223.999 C 391.993 219.59 388.418 216.015 384.009 216.015 C 366.371 216.015 352.022 230.364 352.022 248 C 352.022 265.637 366.371 279.986 384.009 279.986 C 401.646 279.986 415.995 265.637 415.995 248 C 415.995 243.59 412.419 240.016 408.01 240.016 L 408.01 240.016 Z " fill="rgb(13,71,161)"/><path d=" M 336.96 313.328 C 330.092 317.832 323.674 320.02 317.337 320.02 C 311.001 320.02 304.582 317.832 297.715 313.328 C 294.028 310.911 289.078 311.939 286.659 315.626 C 284.241 319.314 285.27 324.263 288.958 326.681 C 298.376 332.857 307.925 335.989 317.338 335.989 C 326.752 335.989 336.3 332.857 345.719 326.681 C 349.406 324.263 350.436 319.314 348.017 315.626 C 345.599 311.938 340.648 310.91 336.96 313.328 L 336.96 313.328 Z " fill="rgb(13,71,161)"/></g></g></svg>