<?xml version="1.0" encoding="UTF-8" standalone="no"?><!-- Generator: Gravit.io --><svg xmlns="http://www.w3.org/2000/svg" xmlns:xlink="http://www.w3.org/1999/xlink" style="isolation:isolate" viewBox="0 0 512 512" width="512pt" height="512pt"><defs><clipPath id="_clipPath_yPSFOgdDJGLl40g8MoLiXKpYozkAtuGV"><rect width="512" height="512"/></clipPath></defs><g clip-path="url(#_clipPath_yPSFOgdDJGLl40g8MoLiXKpYozkAtuGV)"><g><path d=" M 61.32 435.97 L 65.697 415.358 C 68.577 401.796 81.258 392.031 95.989 392.031 L 421.089 392.031 C 435.82 392.031 448.501 401.796 451.381 415.358 L 455.758 435.97" fill="rgb(41,98,255)"/></g><g><path d=" M 455.759 435.97 L 457.08 442.193 L 59.998 442.193 L 61.32 435.97" fill="rgb(33,150,243)"/></g><g><path d=" M 504.5 504.224 L 7.5 504.224 L 7.5 491.978 C 7.5 464.482 29.79 442.193 57.285 442.193 L 454.714 442.193 C 482.21 442.193 504.499 464.483 504.499 491.978 L 504.499 504.224 L 504.5 504.224 Z " fill="rgb(187,222,251)"/></g><g><path d=" M 454.714 442.193 L 424.714 442.193 C 452.21 442.193 474.499 464.483 474.499 491.978 L 474.499 504.224 L 504.499 504.224 L 504.499 491.978 C 504.5 464.482 482.21 442.193 454.714 442.193 L 454.714 442.193 Z " fill="rgb(41,98,255)"/></g><g><path d=" M 370.342 108.234 L 336.002 108.234 C 330.555 108.234 326.14 112.649 326.14 118.096 L 326.14 135.385 C 326.14 140.832 321.725 145.247 316.278 145.247 L 292.581 145.247 C 287.134 145.247 282.719 140.832 282.719 135.385 L 282.719 118.096 C 282.719 112.649 278.304 108.234 272.857 108.234 L 239.14 108.234 C 233.694 108.234 229.278 112.649 229.278 118.096 L 229.278 135.385 C 229.278 140.832 224.863 145.247 219.416 145.247 L 195.719 145.247 C 190.272 145.247 185.857 140.832 185.857 135.385 L 185.857 118.096 C 185.857 112.649 181.442 108.234 175.995 108.234 L 141.655 108.234 C 136.458 108.234 132.153 112.267 131.814 117.453 L 110.603 442.193 L 401.39 442.193 L 380.179 117.453 C 379.844 112.267 375.539 108.234 370.342 108.234 L 370.342 108.234 Z " fill="rgb(187,222,251)"/></g><g><path d=" M 380.182 117.453 C 379.843 112.267 375.538 108.234 370.341 108.234 L 340.341 108.234 C 345.538 108.234 349.843 112.267 350.182 117.453 L 371.393 442.193 L 401.393 442.193 L 380.182 117.453 Z " fill="rgb(33,150,243)"/></g><g><path d=" M 304.511 442.193 L 207.49 442.193 L 207.49 359.12 C 207.49 332.328 229.209 310.609 256.001 310.609 C 282.793 310.609 304.512 332.328 304.512 359.12 L 304.512 442.193 L 304.511 442.193 Z " fill="rgb(33,150,243)"/></g><g><path d=" M 256 310.609 C 250.763 310.609 245.725 311.449 241 312.984 C 260.448 319.303 274.511 337.564 274.511 359.119 L 274.511 442.192 L 304.511 442.192 L 304.511 359.12 C 304.511 332.328 282.792 310.609 256 310.609 L 256 310.609 Z " fill="rgb(41,98,255)"/></g><g><path d=" M 222.376 263.041 L 178.325 263.041 L 178.325 225.323 C 178.325 213.159 188.186 203.298 200.351 203.298 C 212.515 203.298 222.377 213.159 222.377 225.323 L 222.377 263.041 L 222.376 263.041 Z " fill="rgb(41,98,255)"/></g><g><path d=" M 333.675 263.041 L 289.624 263.041 L 289.624 225.323 C 289.624 213.159 299.485 203.298 311.65 203.298 C 323.814 203.298 333.676 213.159 333.676 225.323 L 333.676 263.041 L 333.675 263.041 Z " fill="rgb(41,98,255)"/></g><g><path d=" M 324.253 48.547 L 256 17.439 L 256 79.655 L 324.253 48.547 L 256 17.439 L 256 79.655 L 324.253 48.547 Z " fill="rgb(33,150,243)"/></g><g><circle vector-effect="non-scaling-stroke" cx="157.286" cy="375.3604999999999" r="7.5" fill="rgb(13,71,161)"/><circle vector-effect="non-scaling-stroke" cx="331.341" cy="324.5584999999999" r="7.5" fill="rgb(13,71,161)"/><circle vector-effect="non-scaling-stroke" cx="353.841" cy="360.3604999999999" r="7.5" fill="rgb(13,71,161)"/><circle vector-effect="non-scaling-stroke" cx="399.05899999999997" cy="475.05349999999993" r="7.5" fill="rgb(13,71,161)"/><circle vector-effect="non-scaling-stroke" cx="91.832" cy="475.05349999999993" r="7.5" fill="rgb(13,71,161)"/><path d=" M 463.291 435.612 L 458.717 414.075 C 455.115 397.116 439.29 384.806 421.088 384.806 L 405.142 384.806 L 391.823 180.888 C 391.553 176.755 387.985 173.613 383.85 173.893 C 379.717 174.163 376.585 177.732 376.855 181.866 L 393.386 434.969 L 312.01 434.969 L 312.01 359.395 C 312.01 328.511 286.884 303.384 255.999 303.384 C 225.115 303.384 199.989 328.511 199.989 359.395 L 199.989 434.968 L 118.612 434.968 L 139.301 118.216 C 139.382 116.979 140.417 116.009 141.658 116.009 L 175.997 116.009 C 177.299 116.009 178.359 117.069 178.359 118.371 L 178.359 135.66 C 178.359 145.233 186.147 153.022 195.721 153.022 L 219.418 153.022 C 228.991 153.022 236.78 145.233 236.78 135.66 L 236.78 118.371 C 236.78 117.069 237.84 116.009 239.142 116.009 L 272.859 116.009 C 274.161 116.009 275.22 117.069 275.22 118.371 L 275.22 135.66 C 275.22 145.233 283.009 153.022 292.582 153.022 L 316.279 153.022 C 325.852 153.022 333.641 145.233 333.641 135.66 L 333.641 118.371 C 333.641 117.069 334.701 116.009 336.003 116.009 L 370.343 116.009 C 371.584 116.009 372.619 116.979 372.7 118.217 L 374.97 152.965 C 375.24 157.098 378.812 160.244 382.943 159.96 C 387.076 159.69 390.208 156.121 389.938 151.987 L 387.668 117.238 C 387.073 108.137 379.463 101.009 370.343 101.009 L 336.003 101.009 C 326.43 101.009 318.641 108.798 318.641 118.371 L 318.641 135.66 C 318.641 136.962 317.581 138.022 316.279 138.022 L 292.582 138.022 C 291.28 138.022 290.22 136.962 290.22 135.66 L 290.22 118.371 C 290.22 108.798 282.432 101.009 272.859 101.009 L 263.5 101.009 L 263.5 84.754 L 327.363 55.647 C 330.037 54.428 331.753 51.761 331.753 48.822 C 331.753 45.883 330.037 43.216 327.363 41.997 L 263.5 12.889 L 263.5 8.051 C 263.5 3.909 260.142 0.551 256 0.551 C 251.858 0.551 248.5 3.909 248.5 8.051 L 248.5 101.009 L 239.142 101.009 C 229.569 101.009 221.78 108.798 221.78 118.371 L 221.78 135.66 C 221.78 136.962 220.72 138.022 219.418 138.022 L 195.721 138.022 C 194.419 138.022 193.359 136.962 193.359 135.66 L 193.359 118.371 C 193.359 108.798 185.57 101.009 175.997 101.009 L 141.658 101.009 C 132.537 101.009 124.927 108.138 124.333 117.239 L 106.856 384.806 L 95.989 384.806 C 77.787 384.806 61.962 397.116 58.36 414.075 L 53.983 434.687 C 53.955 434.816 53.941 434.945 53.921 435.075 C 23.895 436.823 0 461.796 0 492.254 L 0 504.5 C 0 508.642 3.358 512 7.5 512 L 76.832 512 C 80.974 512 84.332 508.642 84.332 504.5 C 84.332 500.358 80.974 497 76.832 497 L 15 497 L 15 492.254 C 15 468.938 33.969 449.968 57.285 449.968 L 454.714 449.968 C 478.03 449.968 497 468.937 497 492.254 L 497 497 L 106.832 497 C 102.69 497 99.332 500.358 99.332 504.5 C 99.332 508.642 102.69 512 106.832 512 L 504.5 512 C 508.642 512 512 508.642 512 504.5 L 512 492.254 C 512 463.581 490.825 439.764 463.291 435.612 L 463.291 435.612 Z  M 306.169 48.822 L 263.5 68.269 L 263.5 29.374 L 306.169 48.822 Z  M 406.122 399.806 L 421.089 399.806 C 432.251 399.806 441.905 407.117 444.045 417.191 L 447.82 434.967 L 408.419 434.967 L 406.122 399.806 Z  M 214.989 359.395 C 214.989 336.782 233.386 318.384 256 318.384 C 278.613 318.384 297.011 336.782 297.011 359.395 L 297.011 434.968 L 214.99 434.968 L 214.99 359.395 L 214.989 359.395 Z  M 95.989 399.806 L 105.877 399.806 L 103.58 434.968 L 69.258 434.968 L 73.033 417.192 C 75.172 407.118 84.827 399.806 95.989 399.806 L 95.989 399.806 Z " fill="rgb(13,71,161)"/><path d=" M 170.463 225.815 L 170.463 263.533 C 170.463 267.675 173.821 271.033 177.963 271.033 L 222.014 271.033 C 226.156 271.033 229.514 267.675 229.514 263.533 L 229.514 225.815 C 229.514 209.535 216.269 196.29 199.988 196.29 C 183.708 196.29 170.463 209.535 170.463 225.815 L 170.463 225.815 Z  M 214.514 225.815 L 214.514 256.033 L 185.463 256.033 L 185.463 225.815 C 185.463 217.806 191.979 211.29 199.988 211.29 C 207.998 211.29 214.514 217.806 214.514 225.815 L 214.514 225.815 Z " fill="rgb(13,71,161)"/><path d=" M 341.535 263.533 L 341.535 225.815 C 341.535 209.535 328.29 196.29 312.01 196.29 C 295.729 196.29 282.484 209.535 282.484 225.815 L 282.484 263.533 C 282.484 267.675 285.842 271.033 289.984 271.033 L 334.035 271.033 C 338.177 271.033 341.535 267.676 341.535 263.533 Z  M 326.535 256.033 L 297.484 256.033 L 297.484 225.815 C 297.484 217.806 304 211.29 312.01 211.29 C 320.019 211.29 326.535 217.806 326.535 225.815 L 326.535 256.033 Z " fill="rgb(13,71,161)"/></g></g></svg>